<?xml version="1.0" encoding="utf-8"?>
<!-- Generator: Adobe Illustrator 25.2.0, SVG Export Plug-In . SVG Version: 6.00 Build 0)  -->
<svg version="1.1" id="Layer_1" xmlns="http://www.w3.org/2000/svg" xmlns:xlink="http://www.w3.org/1999/xlink" x="0px" y="0px"
	 viewBox="0 0 27 38" style="enable-background:new 0 0 27 38;" xml:space="preserve">
<style type="text/css">
	.st0{fill:#FFAD41;}
	.st1{fill:#FF9811;}
	.st2{fill:#804C09;}
	.st3{fill:#BD720D;}
	.st4{fill:#FF5023;}
	.st5{fill:#BD3C1A;}
	.st6{fill:#FFE98F;}
	.st7{fill:#FFDA44;}
	.st8{fill:#91DC5A;}
	.st9{fill:#64C37D;}
</style>
<g id="XMLID_813_">
	<path id="XMLID_814_" class="st0" d="M20.4,19v-1c0-2.7-2.2-4.9-4.9-4.9h-4c-2.7,0-4.9,2.2-4.9,4.9v1H20.4z"/>
	<path id="XMLID_815_" class="st1" d="M13.5,13.1h-2c-2.7,0-4.9,2.2-4.9,4.9v1h6.9V13.1z"/>
	<circle id="XMLID_816_" class="st2" cx="9" cy="16.5" r="0.5"/>
	<circle id="XMLID_817_" class="st2" cx="11.5" cy="15" r="0.5"/>
	<circle id="XMLID_818_" class="st3" cx="18" cy="16.5" r="0.5"/>
	<circle id="XMLID_819_" class="st3" cx="15.5" cy="15" r="0.5"/>
	<circle id="XMLID_820_" class="st3" cx="13.5" cy="16.5" r="0.5"/>
	<path id="XMLID_821_" class="st2" d="M13.5,16c-0.3,0-0.5,0.2-0.5,0.5s0.2,0.5,0.5,0.5"/>
	<path id="XMLID_822_" class="st4" d="M19,19.5H8c-0.8,0-1.5,0.7-1.5,1.5c0,0.8,0.7,1.5,1.5,1.5H19c0.8,0,1.5-0.7,1.5-1.5
		C20.4,20.2,19.8,19.5,19,19.5z"/>
	<path id="XMLID_823_" class="st5" d="M13.5,19.5H8c-0.8,0-1.5,0.7-1.5,1.5c0,0.8,0.7,1.5,1.5,1.5h5.5V19.5z"/>
	<path id="XMLID_824_" class="st0" d="M21.4,23.5c0,0.8-0.7,1.5-1.5,1.5H7.1c-0.8,0-1.5-0.7-1.5-1.5l0,0c0-0.8,0.7-1.5,1.5-1.5h12.9
		C20.8,22,21.4,22.6,21.4,23.5L21.4,23.5z"/>
	<path id="XMLID_825_" class="st1" d="M13.5,22H7.1c-0.8,0-1.5,0.7-1.5,1.5s0.7,1.5,1.5,1.5h6.4V22z"/>
	<polygon id="XMLID_826_" class="st6" points="8.5,20 13.5,19.5 18.5,20 13.5,23.5 	"/>
	<polygon id="XMLID_827_" class="st7" points="8.5,20 13.5,19.5 13.5,23.5 	"/>
	<path id="XMLID_828_" class="st8" d="M21.4,19.2c0,0.4-0.3,0.7-0.7,0.7H6.3c-0.4,0-0.7-0.3-0.7-0.7l0,0c0-0.4,0.3-0.7,0.7-0.7h14.4
		C21.1,18.5,21.4,18.8,21.4,19.2L21.4,19.2z"/>
	<path id="XMLID_829_" class="st9" d="M13.5,18.5H6.3c-0.4,0-0.7,0.3-0.7,0.7c0,0.4,0.3,0.7,0.7,0.7h7.2V18.5z"/>
</g>
</svg>
