<?xml version="1.0" encoding="utf-8"?>
<!-- Generator: Adobe Illustrator 25.2.0, SVG Export Plug-In . SVG Version: 6.00 Build 0)  -->
<svg version="1.1" id="Layer_1" xmlns="http://www.w3.org/2000/svg" xmlns:xlink="http://www.w3.org/1999/xlink" x="0px" y="0px"
	 viewBox="0 0 27 38" style="enable-background:new 0 0 27 38;" xml:space="preserve">
<style type="text/css">
	.st0{fill:#FFD170;}
	.st1{fill:#FF4085;}
	.st2{fill:#63B6E6;}
	.st3{fill:#9729CC;}
	.st4{fill:#FFFFFF;}
	.st5{fill:#FFF080;}
	.st6{fill:#84E060;}
</style>
<path class="st0" d="M2.3,19.9c0,4.9,5,8.9,11.2,8.9s11.2-4,11.2-8.9s-5-8.9-11.2-8.9S2.3,15,2.3,19.9 M9.3,20.7
	c0-1.4,1.9-2.6,4.2-2.6s4.2,1.2,4.2,2.6c0,1.4-1.9,2.6-4.2,2.6S9.3,22.1,9.3,20.7"/>
<path class="st1" d="M2.3,17.5c0,0.7,0.1,1.4,0.3,2c0.2,0.9,0.4,2.3,0.9,3c0.3,0.3,0.8-0.1,1.3-0.1c0.8,0,1,1.8,2,1.8
	c1.5,0,0.8,1.2,2.8,1.2c1.1,0,1.6-1,2.1-1c1.4,0,1.3,1.9,2.7,1.9c1.4,0,1.3-2.2,2.7-2.2c1.3,0,1.5,1.2,2.5,1.2c1,0,0.8-3.4,1.9-3.4
	c1.3,0,2.1-0.5,2.4-1c0.6-1,0.9-2.1,0.9-3.3c0-4-5-7.5-11.2-7.5S2.3,13.6,2.3,17.5 M9.3,17.6c0-0.4,0.5-0.8,0.8-1.2
	c0.3-0.3,0.4-1,0.8-1.2c0.7-0.4,1.3,0.9,2.4,0.9c0.5,0,1.6-0.9,2.1-0.8c0.7,0.2,0.4,0.7,0.9,1.1c0.5,0.4,1.3,0.6,1.3,1.2
	c0,1.4-0.9,2.6-4.2,2.6C10.3,20.2,9.3,19,9.3,17.6"/>
<g>
	<path class="st2" d="M16.7,22l-2.2,1.1c-0.3,0.2-0.7-0.4-0.3-0.6l2.2-1.1C16.7,21.2,17,21.8,16.7,22"/>
	<path class="st2" d="M20.7,14.8l-2.3-0.8c-0.4-0.1-0.1-0.7,0.2-0.6l2.3,0.8C21.3,14.4,21.1,15,20.7,14.8"/>
</g>
<g>
	<path class="st3" d="M8.1,19.8l-2.3,0.8c-0.4,0.1-0.6-0.5-0.2-0.6l2.3-0.8C8.2,19.1,8.5,19.7,8.1,19.8"/>
	<path class="st3" d="M12.3,13.3l-2.2-0.9c-0.4-0.1-0.1-0.7,0.2-0.6l2.2,0.9C12.9,12.8,12.7,13.4,12.3,13.3"/>
</g>
<g>
	<path class="st4" d="M6.2,17.5l-2.2-1.1c-0.3-0.2-0.1-0.7,0.3-0.6l2.2,1.1C6.9,17.1,6.6,17.7,6.2,17.5"/>
	<path class="st4" d="M22.8,16.7l-2.3,0.8c-0.4,0.1-0.6-0.5-0.2-0.6l2.3-0.8C23,16,23.2,16.6,22.8,16.7"/>
</g>
<g>
	<path class="st5" d="M11,22.6l-2.4,0.1c-0.4,0-0.4-0.6,0-0.7l2.4-0.1C11.4,21.9,11.4,22.6,11,22.6"/>
	<path class="st5" d="M17.5,11.9l-2.4,0.7c-0.4,0.1-0.6-0.5-0.2-0.6l2.4-0.7C17.7,11.2,17.9,11.8,17.5,11.9"/>
</g>
<g>
	<path class="st6" d="M19,19.7l2.4,0.1c0.4,0,0.4,0.7,0,0.7l-2.4-0.1C18.5,20.3,18.5,19.7,19,19.7"/>
	<path class="st6" d="M8.5,13.9l-2.4,0.6C5.8,14.7,5.6,14,6,13.9l2.4-0.6C8.7,13.2,8.9,13.8,8.5,13.9"/>
</g>
</svg>
