<?xml version="1.0" encoding="utf-8"?>
<!-- Generator: Adobe Illustrator 25.2.0, SVG Export Plug-In . SVG Version: 6.00 Build 0)  -->
<svg version="1.1" id="Layer_1" xmlns="http://www.w3.org/2000/svg" xmlns:xlink="http://www.w3.org/1999/xlink" x="0px" y="0px"
	 viewBox="0 0 27 38" style="enable-background:new 0 0 27 38;" xml:space="preserve">
<style type="text/css">
	.st0{fill:#3B97D3;}
	.st1{fill:#F29C1F;}
	.st2{fill:#285680;}
</style>
<path class="st0" d="M9.1,14.7c0.5,0.4,0.6,1.1,0.3,1.6c-0.3,0.6-0.9,0.9-1.5,0.9c0,0,0,0-0.1,0c-1.9-2.6-2.2-5.8-2.2-7.5
	C5.8,9.7,6,9.7,6.2,9.7c0.4,0,0.9,0.2,1.2,0.4c0.3,0.3,0.5,0.7,0.5,1.1c0,0.2,0,0.3-0.1,0.5c0.1,0.1,0.2,0.2,0.3,0.3
	c0.3-0.1,0.6-0.2,0.9-0.2c0.9,0,1.7,0.6,1.7,1.5C10.7,14,10,14.7,9.1,14.7z"/>
<path class="st0" d="M10.7,25.1c0-0.7-0.4-1.3-1.1-1.7c-0.7-0.3-1.5-0.3-2.1,0c-0.1-0.1-0.3-0.2-0.4-0.3c0.1-0.2,0.1-0.4,0.1-0.6
	c0-1-0.8-1.8-1.8-1.9C3.4,23.3,2,26.2,1,29.2c0.4,0.7,1.2,1.1,2,1c0.8-0.1,1.6-0.6,1.8-1.3C4.9,28.8,5,28.5,5,28.3
	c0,0.2,0,0.4,0.1,0.6c0.3,0.7,1,1.2,1.9,1.3c0.9,0,1.7-0.4,2-1.1c0.4-0.7,0.2-1.5-0.3-2.1C9.8,27,10.7,26.1,10.7,25.1z M5.5,26.2
	c-0.2,0.2-0.5,0.2-0.8,0.1c-0.3-0.1-0.4-0.3-0.4-0.6c0-0.1,0-0.2,0.1-0.2c0.1-0.2,0.4-0.4,0.7-0.4c0.3,0,0.5,0.2,0.7,0.4
	c0,0.1,0.1,0.2,0.1,0.2C5.7,25.9,5.6,26.1,5.5,26.2z"/>
<path class="st1" d="M13.5,30.2v7c-1.2,0.1-2.4,0.1-3.5,0L13.5,30.2z"/>
<path class="st0" d="M23.4,23.3c-0.6-0.2-1.4-0.1-1.9,0.3c-0.5,0.4-0.9,0.9-0.9,1.6c0,0.2,0,0.4,0.1,0.6c-0.2,0.1-0.3,0.2-0.4,0.3
	c-0.8-0.4-1.7-0.3-2.4,0.2c-0.7,0.5-1,1.3-0.7,2.1c0.3,0.8,1,1.3,1.9,1.4c-0.6,0.6-0.7,1.4-0.3,2.1c0.4,0.7,1.2,1.1,2,1.1
	c0.9,0,1.6-0.6,1.9-1.3c0.1-0.2,0.1-0.4,0.1-0.6c0,0.2,0,0.4,0.1,0.6c0.3,0.7,1,1.2,1.8,1.3c0.8,0.1,1.6-0.3,2-0.9
	C26.1,28.9,25,26,23.4,23.3z M23.2,28.8C23,29,22.7,29,22.5,28.9c-0.3-0.1-0.4-0.3-0.4-0.6c0-0.1,0-0.2,0.1-0.2
	c0.1-0.2,0.4-0.4,0.7-0.4c0.3,0,0.5,0.2,0.7,0.4c0,0.1,0.1,0.2,0.1,0.2C23.4,28.5,23.4,28.7,23.2,28.8z"/>
<path class="st0" d="M21.4,9.7c0,1.8-0.3,4.9-2.2,7.5c0,0,0,0-0.1,0c-0.7,0-1.3-0.4-1.5-0.9c-0.3-0.6-0.2-1.2,0.3-1.6
	c-0.9-0.1-1.6-0.8-1.6-1.6c0-0.8,0.8-1.5,1.7-1.5c0.3,0,0.6,0.1,0.9,0.2c0.1-0.1,0.2-0.2,0.3-0.3c-0.1-0.1-0.1-0.3-0.1-0.5
	c0-0.4,0.2-0.8,0.5-1.1s0.7-0.4,1.2-0.4C21,9.7,21.2,9.7,21.4,9.7z"/>
<path class="st1" d="M18.2,1.9c-0.5,2.4-1.8,6.2-4.7,7.1c-2.9-0.9-4.2-4.7-4.7-7.1c1.5,0.5,3.1,0.7,4.7,0.7
	C15.1,2.6,16.7,2.4,18.2,1.9z"/>
<path class="st2" d="M5.7,25.7c0,0.4-0.3,0.6-0.7,0.6c-0.4,0-0.7-0.3-0.7-0.6c0-0.1,0-0.2,0.1-0.2c0.1-0.2,0.4-0.4,0.7-0.4
	c0.3,0,0.5,0.2,0.7,0.4C5.7,25.6,5.7,25.7,5.7,25.7z"/>
<path class="st2" d="M23.4,28.3c0,0.4-0.3,0.6-0.7,0.6c-0.4,0-0.7-0.3-0.7-0.6c0-0.1,0-0.2,0.1-0.2c0.1-0.2,0.4-0.4,0.7-0.4
	c0.3,0,0.5,0.2,0.7,0.4C23.4,28.2,23.4,28.2,23.4,28.3z"/>
</svg>
