<?xml version="1.0" encoding="utf-8"?>
<!-- Generator: Adobe Illustrator 25.2.0, SVG Export Plug-In . SVG Version: 6.00 Build 0)  -->
<svg version="1.1" id="Layer_1" xmlns="http://www.w3.org/2000/svg" xmlns:xlink="http://www.w3.org/1999/xlink" x="0px" y="0px"
	 viewBox="0 0 27 38" style="enable-background:new 0 0 27 38;" xml:space="preserve">
<style type="text/css">
	.st0{fill:#E6E6E6;}
	.st1{fill:#C1272D;}
	.st2{fill:#754C24;}
</style>
<g>
	<g>
		<rect x="7" y="12.1" class="st0" width="13" height="1.7"/>
		<polygon class="st1" points="7.9,13.8 8.3,18.1 9.1,26 9.5,30.3 17.5,30.3 17.9,26 18.7,18.1 19.1,13.8 		"/>
		<rect x="13.6" y="7.7" class="st2" width="1.5" height="4.4"/>
	</g>
	<g>
		<path d="M20,11.6h-4.5v-4c0-0.3-0.2-0.5-0.5-0.5h-1.5c-0.3,0-0.5,0.2-0.5,0.5v4H7c-0.3,0-0.5,0.2-0.5,0.5v1.7
			c0,0.3,0.2,0.5,0.5,0.5h0.5L9,30.4c0,0.2,0.2,0.4,0.5,0.4h8c0.2,0,0.4-0.2,0.5-0.4l1.5-16.1H20c0.3,0,0.5-0.2,0.5-0.5v-1.7
			C20.5,11.8,20.3,11.6,20,11.6z M14,8.1h0.6v3.4H14V8.1z M17.1,29.9H9.9L8.4,14.3h10.1L17.1,29.9z M7.5,13.3v-0.8h12.1v0.8H7.5z"/>
		<path d="M9.7,17.6l0.1,0.9c0,0.2,0.2,0.4,0.5,0.4c0,0,0,0,0,0c0.3,0,0.4-0.3,0.4-0.5l-0.1-0.9c0-0.3-0.3-0.4-0.5-0.4
			C9.9,17.1,9.7,17.4,9.7,17.6z"/>
		<path d="M10.5,20.5c-0.3,0-0.4,0.3-0.4,0.5l0.6,6.5c0,0.2,0.2,0.4,0.5,0.4c0,0,0,0,0,0c0.3,0,0.4-0.3,0.4-0.5L11,21
			C11,20.7,10.7,20.5,10.5,20.5z"/>
	</g>
</g>
</svg>
