<?xml version="1.0" encoding="utf-8"?>
<!-- Generator: Adobe Illustrator 25.2.0, SVG Export Plug-In . SVG Version: 6.00 Build 0)  -->
<svg version="1.1" id="Layer_1" xmlns="http://www.w3.org/2000/svg" xmlns:xlink="http://www.w3.org/1999/xlink" x="0px" y="0px"
	 viewBox="0 0 27 38" style="enable-background:new 0 0 27 38;" xml:space="preserve">
<style type="text/css">
	.st0{fill:#FFAD41;}
	.st1{fill:#FF9811;}
	.st2{fill:#FF5023;}
	.st3{fill:#BD3C1A;}
	.st4{fill:#FFE98F;}
	.st5{fill:#FFDA44;}
</style>
<g id="XMLID_897_">
	<path id="XMLID_898_" class="st0" d="M23.1,19.1H6.6L5,20.7c5.5,5.5,14.3,5.5,19.8,0C24.2,20.2,23.7,19.7,23.1,19.1z"/>
	<path id="XMLID_23_" class="st1" d="M14.8,24.8c-3.6,0-7.1-1.4-9.9-4.1l9.9-9.9C14.8,10.8,14.8,19.7,14.8,24.8z"/>
	<path id="XMLID_899_" class="st2" d="M21.9,17.9H7.7l-1.3,1.3c2.1,2.1,5.1,3.5,8.4,3.5s6.2-1.3,8.4-3.5
		C22.8,18.8,21.9,17.9,21.9,17.9z"/>
	<path id="XMLID_900_" class="st3" d="M14.8,17.9H7.7l-1.3,1.3c2.1,2.1,5.1,3.5,8.4,3.5C14.8,22.6,14.8,17.9,14.8,17.9z"/>
	<path id="XMLID_901_" class="st4" d="M14.8,10.8l-7.1,7.1c0.9,0.9,2.4,1,3.5,1.5c1.1,0.5,2.2,1.5,3.6,1.5s2.4-1,3.6-1.5
		c1.2-0.5,2.7-0.6,3.5-1.5C18.6,14.5,14.8,10.8,14.8,10.8z"/>
	<path id="XMLID_902_" class="st5" d="M7.7,17.9c0.2,0.2,0.4,0.4,0.7,0.5v5.3c0,0.6,0.5,1.1,1.1,1.1s1.1-0.5,1.1-1.1V21
		c0-0.6,0.5-1.1,1.1-1.1c0.6,0,1.1,0.5,1.1,1.1v5.4c0,0.6,0.5,1.1,1.1,1.1s1.1-0.5,1.1-1.1V10.8L7.7,17.9z"/>
	<circle id="XMLID_903_" class="st3" cx="11.9" cy="17" r="1.3"/>
	<circle id="XMLID_904_" class="st2" cx="17.8" cy="17" r="1.3"/>
	<circle id="XMLID_905_" class="st2" cx="14.8" cy="14.3" r="1.3"/>
	<path id="XMLID_906_" class="st3" d="M14.8,15.6c-0.7,0-1.3-0.6-1.3-1.3s0.6-1.3,1.3-1.3"/>
</g>
</svg>
