<?xml version="1.0" encoding="utf-8"?>
<!-- Generator: Adobe Illustrator 25.2.0, SVG Export Plug-In . SVG Version: 6.00 Build 0)  -->
<svg version="1.1" id="Layer_1" xmlns="http://www.w3.org/2000/svg" xmlns:xlink="http://www.w3.org/1999/xlink" x="0px" y="0px"
	 viewBox="0 0 27 38" style="enable-background:new 0 0 27 38;" xml:space="preserve">
<style type="text/css">
	.st0{fill:#DDDCDC;}
	.st1{fill:#828084;}
	.st2{fill:#A5A4A4;}
	.st3{fill:#F9BA3C;}
	.st4{fill:#9F5C26;}
	.st5{fill:#FFD78A;}
	.st6{fill:#D99135;}
	.st7{fill:#B06928;}
	.st8{clip-path:url(#SVGID_2_);}
	.st9{fill:#E9A231;}
	.st10{fill:#E1332E;}
	.st11{fill:#88181A;}
	.st12{clip-path:url(#SVGID_4_);}
	.st13{fill:#BE2627;}
	.st14{fill:#F27173;}
	.st15{clip-path:url(#SVGID_6_);}
	.st16{clip-path:url(#SVGID_8_);}
	.st17{fill:#7C50A1;}
	.st18{fill:#472C76;}
	.st19{fill:#623391;}
	.st20{fill:#9371B2;}
	.st21{fill:#FFD43E;}
	.st22{fill:#B87C2B;}
	.st23{clip-path:url(#SVGID_10_);}
	.st24{fill:#FCEBA5;}
	.st25{clip-path:url(#SVGID_12_);}
	.st26{fill:#E3A13E;}
	.st27{clip-path:url(#SVGID_14_);}
	.st28{clip-path:url(#SVGID_16_);}
	.st29{fill:#FFFFFF;}
</style>
<ellipse class="st0" cx="13.4" cy="23.1" rx="10.1" ry="6.6"/>
<path class="st1" d="M13.4,16.5c5.6,0,10.1,3,10.1,6.6s-4.5,6.6-10.1,6.6s-10.1-3-10.1-6.6S7.8,16.5,13.4,16.5 M13.4,16.3
	C7.7,16.3,3,19.4,3,23.1S7.7,30,13.4,30s10.3-3.1,10.3-6.9S19.1,16.3,13.4,16.3L13.4,16.3z"/>
<ellipse class="st2" cx="13.4" cy="22.8" rx="8" ry="5.1"/>
<ellipse transform="matrix(0.9863 -0.1647 0.1647 0.9863 -3.3818 2.5145)" class="st3" cx="13.5" cy="21.6" rx="7.5" ry="5.3"/>
<path class="st4" d="M14.3,16.3c3.3,0,6.1,1.7,6.5,4.1c0.5,2.9-2.4,5.8-6.5,6.4C13.8,27,13.2,27,12.6,27c-3.3,0-6.1-1.7-6.5-4.1
	c-0.5-2.9,2.4-5.8,6.5-6.4C13.2,16.3,13.7,16.3,14.3,16.3 M14.3,16L14.3,16c-0.6,0-1.2,0-1.8,0.1c-4.2,0.7-7.2,3.7-6.7,6.7
	c0.4,2.6,3.2,4.3,6.8,4.3c0.6,0,1.2,0,1.8-0.1c4.2-0.7,7.2-3.7,6.7-6.7C20.7,17.8,17.9,16,14.3,16L14.3,16z"/>
<path class="st5" d="M20.1,20.8c0-0.5-0.7-0.3-1-0.1c-0.4,0.4-0.3,1.2,0.1,1.3C19.7,22.1,20.1,21.3,20.1,20.8z"/>
<path class="st5" d="M18.5,22.4c-0.5,0.1-0.7,0.7-0.7,1c0.1,0.3,0.6,0.4,0.9-0.2C19.2,22.7,18.9,22.3,18.5,22.4z"/>
<path class="st5" d="M17.5,21.1c-0.7,0.3-0.7,0.8-0.4,1.1c0.3,0.3,0.8-0.2,1-0.7S17.9,21,17.5,21.1z"/>
<path class="st5" d="M17.1,23.6c-0.2-0.3-0.3-0.1-0.6,0.4s0.3,0.8,0.7,0.5C17.6,24.2,17.3,23.8,17.1,23.6z"/>
<path class="st5" d="M16.3,22.4c-0.5,0-0.6,0.6-0.4,0.9c0.2,0.3,0.6,0,0.8-0.4S16.7,22.4,16.3,22.4z"/>
<path class="st5" d="M14.2,24.9c-0.6-0.7-1.4-0.2-1.4,0.3c0,0.5,0.4,0.6,1,0.4C14.5,25.5,14.4,25.2,14.2,24.9z"/>
<path class="st5" d="M12.1,24.8c-0.5-0.3-0.9-0.3-1.2,0.1c-0.3,0.3,0,0.7,0.7,0.8S12.4,25,12.1,24.8z"/>
<path class="st5" d="M12,23.6c0-0.4-0.8-0.3-1.2,0.1c-0.4,0.5,0.4,0.6,0.7,0.5C11.7,24.3,12,24.1,12,23.6z"/>
<path class="st5" d="M9.3,24.2C8.6,24.4,8.5,24.8,9,25c0.5,0.2,1,0.5,1.2-0.1S9.6,24.1,9.3,24.2z"/>
<path class="st5" d="M7.7,21.6c-0.5,0.1-0.4,0.4-0.4,0.9c0.2,1,1.2,0.6,1.2,0.1S8.2,21.5,7.7,21.6z"/>
<path class="st5" d="M8.7,20.4c0.5-0.6,0-1.1-0.4-1.2c-0.4,0-1,0.9-1,1.3C7.4,21.3,8.3,21.1,8.7,20.4z"/>
<path class="st5" d="M10.5,17.8c-0.3-0.3-1.1,0.3-1.4,0.7c-0.5,0.6,0.6,0.9,1,0.7C10.5,19,10.8,18.1,10.5,17.8z"/>
<path class="st5" d="M10.7,19.4c-0.4,0.2-0.8,0.1-0.6,0.6c0.2,0.5,0.3,0.7,0.8,0.3S11.7,19.1,10.7,19.4z"/>
<path class="st5" d="M9.9,20.9C9.6,21,9.2,21,9.4,21.6c0.3,0.6,0.9,0.5,1.1,0.1C10.6,21.3,10.4,20.7,9.9,20.9z"/>
<path class="st5" d="M16,17c-0.6-0.2-0.6,0.1-0.7,0.4c-0.3,0.5,1.2,0.8,1.8,0.4S16.6,17.2,16,17z"/>
<path class="st5" d="M18.5,18c-0.4-0.1-0.9,0-0.8,0.3c0.1,0.5,1,0.6,1.4,0.4C19.5,18.5,18.9,18.1,18.5,18z"/>
<path class="st5" d="M13.2,16.7c-0.6,0.2-0.4,0.7-0.2,0.8c0.4,0.2,1.5,0,1.6-0.6C14.7,16.4,13.8,16.6,13.2,16.7z"/>
<path class="st6" d="M19.9,20.8c0-0.5-0.7-0.3-1-0.1c-0.4,0.4-0.3,1.2,0.1,1.2C19.5,22,19.9,21.3,19.9,20.8z"/>
<path class="st6" d="M18.3,22.3c-0.5,0.1-0.7,0.7-0.6,1c0.1,0.3,0.6,0.4,0.9-0.2C19,22.6,18.7,22.3,18.3,22.3z"/>
<path class="st6" d="M17.4,21.1c-0.7,0.3-0.7,0.8-0.4,1.1c0.3,0.3,0.8-0.2,1-0.7C18.2,21,17.7,21,17.4,21.1z"/>
<path class="st6" d="M16.9,23.5c-0.2-0.3-0.3-0.1-0.6,0.4c-0.3,0.5,0.3,0.8,0.7,0.5C17.4,24.2,17.1,23.8,16.9,23.5z"/>
<path class="st6" d="M16.2,22.4c-0.5,0-0.5,0.6-0.4,0.9c0.1,0.3,0.6,0,0.8-0.4S16.5,22.3,16.2,22.4z"/>
<path class="st6" d="M14.3,24.8c0.2,0.2,0.3,0.6-0.4,0.7c-0.7,0.1-1,0.1-1-0.4S13.7,24.1,14.3,24.8z"/>
<path class="st6" d="M12.1,24.6c0.3,0.2,0.3,0.9-0.4,0.8c-0.8,0-1.1-0.4-0.7-0.8C11.3,24.3,11.7,24.3,12.1,24.6z"/>
<path class="st6" d="M9.3,24.1c0.3-0.1,1.1,0.1,0.9,0.7C10,25.4,9.5,25.1,9,24.9S8.6,24.2,9.3,24.1z"/>
<path class="st6" d="M11.5,24.1c-0.4,0.1-1.1-0.1-0.7-0.5c0.4-0.5,1.2-0.6,1.2-0.1S11.8,24.1,11.5,24.1z"/>
<path class="st6" d="M7.8,21.7c-0.5,0.1-0.4,0.4-0.4,0.9c0.2,1,1.2,0.6,1.2,0.1C8.7,22.1,8.3,21.5,7.8,21.7z"/>
<path class="st6" d="M8.9,20.5c0.5-0.6,0-1.1-0.4-1.2c-0.4,0-1,0.9-1,1.3C7.6,21.4,8.4,21.1,8.9,20.5z"/>
<path class="st6" d="M10.6,17.9c-0.3-0.3-1.1,0.3-1.4,0.7c-0.5,0.6,0.6,0.9,1,0.7C10.6,19,10.9,18.2,10.6,17.9z"/>
<path class="st6" d="M10.9,19.5c-0.4,0.2-0.8,0.1-0.6,0.6c0.2,0.5,0.3,0.7,0.8,0.3S11.8,19.1,10.9,19.5z"/>
<path class="st6" d="M10,20.9c-0.3,0.1-0.7,0.1-0.4,0.7c0.3,0.6,0.9,0.5,1.1,0.1C10.8,21.3,10.5,20.8,10,20.9z"/>
<path class="st6" d="M13,17.7c-0.2-0.1-0.4-0.7,0.2-0.8c0.6-0.2,1.5-0.3,1.4,0.3S13.4,17.9,13,17.7z"/>
<path class="st7" d="M19.9,20.8c0-0.4-0.5-0.4-0.8-0.2c0.3-0.1,0.6,0,0.5,0.3c0,0.4-0.2,0.9-0.5,1.1C19.5,21.9,19.9,21.3,19.9,20.8z
	"/>
<path class="st7" d="M17.5,21.1c0.3,0,0.5,0.1,0.3,0.4c-0.1,0.3-0.4,0.6-0.6,0.7c0.3,0,0.7-0.4,0.8-0.8C18.2,21.1,17.8,21,17.5,21.1
	z"/>
<path class="st7" d="M16.2,22.4c-0.1,0-0.1,0-0.2,0.1c0,0,0,0,0,0c0.4,0,0.5,0.1,0.4,0.5c-0.1,0.2-0.2,0.4-0.4,0.5
	c0.2,0,0.4-0.2,0.5-0.5C16.7,22.5,16.5,22.3,16.2,22.4z"/>
<path class="st7" d="M18.3,22.3C18.3,22.3,18.3,22.3,18.3,22.3c0.3,0,0.5,0.4,0.1,0.9c-0.2,0.2-0.3,0.3-0.5,0.4
	c0.2,0,0.4-0.1,0.7-0.4C19,22.6,18.7,22.3,18.3,22.3z"/>
<path class="st7" d="M16.9,23.5c-0.1-0.1-0.1-0.1-0.2-0.1c0,0,0.1,0.1,0.1,0.1c0.2,0.2,0.5,0.6,0,0.9c-0.1,0.1-0.2,0.1-0.4,0.1
	c0.2,0.1,0.4,0,0.5-0.1C17.4,24.2,17.1,23.8,16.9,23.5z"/>
<path class="st7" d="M14.4,24.9c0,0.2-0.2,0.3-0.5,0.4c-0.6,0.1-0.9,0.1-1-0.2c0,0.5,0.4,0.5,1,0.4C14.4,25.4,14.5,25.1,14.4,24.9z"
	/>
<path class="st7" d="M11.8,25.3c-0.6,0-0.9-0.3-0.9-0.6c-0.2,0.3,0.1,0.7,0.8,0.7c0.4,0,0.6-0.1,0.6-0.3
	C12.2,25.2,12.1,25.3,11.8,25.3z"/>
<path class="st7" d="M11,23.7c0.2-0.3,0.6-0.4,0.9-0.4c-0.3-0.1-0.8,0-1.1,0.4c-0.3,0.3,0,0.5,0.4,0.5C10.9,24.1,10.8,23.9,11,23.7z
	"/>
<path class="st6" d="M9.3,24.1c0.3-0.1,1.1,0.1,0.9,0.7C10,25.4,9.5,25.1,9,24.9S8.6,24.2,9.3,24.1z"/>
<path class="st7" d="M9.2,24.9c-0.5-0.2-0.4-0.6,0.3-0.8c0,0,0.1,0,0.1,0c-0.1,0-0.2,0-0.3,0c-0.7,0.2-0.8,0.6-0.3,0.8
	c0.3,0.1,0.6,0.3,0.8,0.3C9.6,25.1,9.4,25,9.2,24.9z"/>
<path class="st7" d="M7.6,22.6c-0.1-0.5-0.1-0.7,0.4-0.9c0.1,0,0.1,0,0.2,0c-0.1,0-0.2-0.1-0.4,0c-0.5,0.1-0.4,0.4-0.4,0.9
	C7.6,23,7.8,23.1,8,23.2C7.9,23.1,7.7,22.9,7.6,22.6z"/>
<path class="st7" d="M9.7,21.6c-0.3-0.6,0.1-0.6,0.4-0.7c0,0,0,0,0.1,0c-0.1,0-0.1,0-0.2,0c-0.3,0.1-0.7,0.1-0.4,0.7
	c0.2,0.3,0.5,0.5,0.7,0.4C10.1,22,9.8,21.9,9.7,21.6z"/>
<path class="st7" d="M7.6,20.7c0-0.3,0.5-1.3,1-1.3c0.1,0,0.2,0,0.3,0.1c-0.1-0.1-0.3-0.2-0.4-0.2c-0.4,0-1,0.9-1,1.3
	c0,0.3,0.1,0.4,0.3,0.5C7.7,20.9,7.6,20.8,7.6,20.7z"/>
<path class="st7" d="M10.5,20.2c-0.2-0.5,0.1-0.5,0.6-0.6c0.1,0,0.2-0.1,0.4-0.1c-0.1-0.1-0.3-0.1-0.5,0c-0.4,0.2-0.8,0.1-0.6,0.6
	c0.2,0.3,0.3,0.5,0.5,0.5C10.7,20.6,10.6,20.4,10.5,20.2z"/>
<path class="st7" d="M9.4,18.6c0.3-0.4,0.9-0.8,1.3-0.8c-0.3-0.2-1.1,0.3-1.4,0.7c-0.3,0.4,0,0.6,0.3,0.7
	C9.3,19.2,9.1,18.9,9.4,18.6z"/>
<path class="st6" d="M16,17.1c-0.6-0.2-0.6,0.1-0.7,0.4c-0.3,0.5,1.2,0.8,1.8,0.4C17.6,17.4,16.6,17.3,16,17.1z"/>
<path class="st6" d="M18.5,18.1c-0.4-0.1-0.9,0-0.8,0.3c0.1,0.5,1,0.6,1.4,0.4C19.5,18.6,18.8,18.2,18.5,18.1z"/>
<path class="st6" d="M13.2,16.8c-0.6,0.2-0.4,0.7-0.2,0.8c0.4,0.2,1.5,0,1.6-0.6C14.7,16.5,13.8,16.7,13.2,16.8z"/>
<path class="st7" d="M13.1,17c0.6-0.2,1.5-0.3,1.4,0.3c0,0,0,0.1,0,0.1c0-0.1,0.1-0.1,0.1-0.2c0.1-0.6-0.8-0.4-1.4-0.3
	c-0.2,0.1-0.3,0.2-0.4,0.3C12.9,17.1,13,17,13.1,17z"/>
<path class="st7" d="M16,17.1c-0.3-0.1-0.5-0.1-0.5,0c0.1,0,0.2,0,0.4,0c0.6,0.2,1.6,0.3,1.1,0.8c0,0,0,0,0.1,0
	C17.6,17.4,16.6,17.3,16,17.1z"/>
<path class="st7" d="M18.5,18.1c-0.2-0.1-0.5,0-0.7,0.1c0.2,0,0.4,0,0.6,0c0.4,0.1,1,0.5,0.6,0.7c0,0,0,0,0,0c0.1,0,0.1,0,0.2-0.1
	C19.5,18.6,18.8,18.2,18.5,18.1z"/>
<path class="st5" d="M6.5,20.7c0,0-0.7,1.9,0.6,3.3l4.2-1.5c0,0-3.8,1.2-4.1,1.2C6.8,23.6,6.1,22.4,6.5,20.7z"/>
<path class="st5" d="M15.2,25.2c0,0,0.4,0.5-1.1,0.8c-1.4,0.3-4.3,0.4-6.3-1.1c0,0,1.3,0.9,3.3,1.1C13.1,26.2,15.1,25.9,15.2,25.2z"
	/>
<path class="st5" d="M20.4,19.6c0,0,0.7,0.5,0.1,2.1c-0.6,1.5-2.7,3.6-4.4,3.6c0,0,1.6-0.2,3.1-1.8S20.9,20.3,20.4,19.6z"/>
<ellipse transform="matrix(0.9709 -0.2396 0.2396 0.9709 -4.5203 3.7838)" class="st3" cx="13.3" cy="20.5" rx="7.5" ry="5.3"/>
<path class="st4" d="M14.5,15c3,0,5.5,1.4,6.1,3.7c0.7,2.8-2,5.9-6,6.9c-0.8,0.2-1.6,0.3-2.5,0.3c-3,0-5.5-1.4-6.1-3.7
	c-0.7-2.8,2-5.9,6-6.9C12.8,15.1,13.7,15,14.5,15 M14.5,14.8L14.5,14.8L14.5,14.8c-0.8,0-1.7,0.1-2.5,0.3c-4.1,1-6.9,4.3-6.2,7.2
	c0.6,2.3,3.1,3.8,6.3,3.8c0.8,0,1.7-0.1,2.5-0.3c4.1-1,6.9-4.3,6.2-7.2C20.2,16.3,17.7,14.8,14.5,14.8L14.5,14.8z"/>
<path class="st5" d="M19.9,19.1c0-0.5-0.7-0.3-1,0c-0.4,0.4-0.2,1.2,0.2,1.2S19.9,19.6,19.9,19.1z"/>
<path class="st5" d="M18.4,20.8c-0.5,0.1-0.7,0.7-0.6,1.1c0.1,0.3,0.6,0.3,0.9-0.2C19.1,21.1,18.7,20.7,18.4,20.8z"/>
<path class="st5" d="M17.3,19.7c-0.7,0.3-0.6,0.9-0.3,1.1c0.3,0.2,0.8-0.3,0.9-0.8C18.1,19.5,17.7,19.5,17.3,19.7z"/>
<path class="st5" d="M17.1,22.1c-0.2-0.3-0.3-0.1-0.6,0.4c-0.3,0.5,0.3,0.8,0.7,0.5C17.6,22.7,17.3,22.4,17.1,22.1z"/>
<path class="st5" d="M16.2,21c-0.5,0.1-0.5,0.6-0.3,0.9c0.2,0.3,0.6,0,0.7-0.4C16.7,21.1,16.6,21,16.2,21z"/>
<path class="st5" d="M14.3,23.7c-0.6-0.6-1.4-0.1-1.4,0.4c0,0.5,0.4,0.5,1.1,0.3C14.6,24.3,14.5,23.9,14.3,23.7z"/>
<path class="st5" d="M12.2,23.7c-0.5-0.3-0.9-0.2-1.2,0.1c-0.3,0.4,0,0.7,0.8,0.7S12.5,23.9,12.2,23.7z"/>
<path class="st5" d="M12,22.6c0-0.4-0.9-0.2-1.2,0.2c-0.4,0.5,0.4,0.6,0.8,0.5C11.7,23.2,12,23,12,22.6z"/>
<path class="st5" d="M9.3,23.4c-0.7,0.2-0.7,0.6-0.3,0.8c0.5,0.2,1,0.5,1.2-0.2C10.5,23.4,9.6,23.3,9.3,23.4z"/>
<path class="st5" d="M7.5,20.9c-0.5,0.2-0.4,0.4-0.3,0.9c0.2,0.9,1.2,0.6,1.2,0C8.4,21.2,8,20.7,7.5,20.9z"/>
<path class="st5" d="M8.5,19.6C8.9,19,8.4,18.5,8,18.5s-0.9,1-0.9,1.3C7.2,20.6,8.1,20.3,8.5,19.6z"/>
<path class="st5" d="M10.1,16.9c-0.3-0.2-1.1,0.3-1.4,0.8c-0.4,0.6,0.7,0.9,1,0.6C10.1,18,10.4,17.2,10.1,16.9z"/>
<path class="st5" d="M10.4,18.5c-0.4,0.2-0.8,0.2-0.5,0.7c0.3,0.5,0.4,0.7,0.8,0.3C11.2,19.1,11.3,18.1,10.4,18.5z"/>
<path class="st5" d="M9.7,20c-0.3,0.1-0.7,0.2-0.4,0.7s0.9,0.5,1.1,0C10.5,20.3,10.2,19.8,9.7,20z"/>
<path class="st5" d="M15.5,15.6c-0.6-0.1-0.5,0.1-0.7,0.5c-0.2,0.6,1.2,0.7,1.8,0.2C17.2,15.8,16.1,15.8,15.5,15.6z"/>
<path class="st5" d="M18,16.5c-0.4-0.1-0.9,0.1-0.8,0.4c0.2,0.5,1,0.6,1.4,0.3C19.1,16.9,18.4,16.5,18,16.5z"/>
<path class="st5" d="M12.7,15.6c-0.6,0.2-0.3,0.7-0.1,0.8c0.4,0.2,1.5-0.1,1.5-0.7S13.3,15.4,12.7,15.6z"/>
<path class="st6" d="M19.7,19.1c0-0.5-0.7-0.3-1,0c-0.4,0.4-0.2,1.2,0.2,1.2C19.3,20.4,19.7,19.6,19.7,19.1z"/>
<path class="st6" d="M18.2,20.8c-0.5,0.1-0.6,0.7-0.6,1s0.6,0.3,0.9-0.2C18.9,21.1,18.6,20.7,18.2,20.8z"/>
<path class="st6" d="M17.2,19.7c-0.6,0.3-0.6,0.9-0.3,1.1c0.3,0.2,0.8-0.3,0.9-0.8C18,19.5,17.5,19.5,17.2,19.7z"/>
<path class="st6" d="M16.9,22.1c-0.2-0.3-0.3-0.1-0.6,0.4C16,23,16.6,23.3,17,23C17.4,22.7,17.1,22.3,16.9,22.1z"/>
<path class="st6" d="M16.1,21c-0.5,0.1-0.5,0.6-0.3,0.9c0.2,0.3,0.6,0,0.7-0.4C16.6,21.1,16.4,20.9,16.1,21z"/>
<path class="st6" d="M14.4,23.5c0.2,0.2,0.3,0.6-0.3,0.8c-0.7,0.2-1,0.2-1.1-0.3C12.9,23.4,13.8,22.9,14.4,23.5z"/>
<path class="st6" d="M12.2,23.6c0.3,0.2,0.4,0.8-0.3,0.9c-0.8,0-1.1-0.4-0.8-0.7C11.3,23.3,11.7,23.3,12.2,23.6z"/>
<path class="st6" d="M9.4,23.2c0.3-0.1,1.1,0,0.9,0.7c-0.2,0.6-0.7,0.4-1.2,0.2C8.6,23.8,8.7,23.4,9.4,23.2z"/>
<path class="st6" d="M11.6,23.1c-0.4,0.1-1.1,0-0.8-0.5c0.4-0.5,1.2-0.7,1.2-0.2C12.1,22.8,11.8,23.1,11.6,23.1z"/>
<path class="st6" d="M7.7,20.9c-0.5,0.2-0.4,0.4-0.3,0.9c0.2,0.9,1.2,0.6,1.2,0C8.6,21.3,8.2,20.7,7.7,20.9z"/>
<path class="st6" d="M8.6,19.7C9,19,8.6,18.5,8.1,18.6c-0.4,0-0.9,1-0.9,1.3C7.4,20.7,8.2,20.3,8.6,19.7z"/>
<path class="st6" d="M10.2,17c-0.3-0.2-1.1,0.3-1.4,0.8c-0.4,0.6,0.7,0.9,1,0.6C10.3,18.1,10.5,17.2,10.2,17z"/>
<path class="st6" d="M10.6,18.5c-0.4,0.2-0.8,0.2-0.5,0.7c0.3,0.5,0.4,0.7,0.8,0.3C11.4,19.1,11.5,18.1,10.6,18.5z"/>
<path class="st6" d="M9.8,20c-0.3,0.1-0.7,0.2-0.4,0.7c0.3,0.5,0.9,0.5,1.1,0C10.6,20.4,10.3,19.8,9.8,20z"/>
<path class="st6" d="M12.6,16.6c-0.2-0.1-0.5-0.6,0.1-0.8c0.6-0.2,1.5-0.4,1.4,0.1S13,16.7,12.6,16.6z"/>
<path class="st7" d="M19.7,19.1c0-0.4-0.5-0.3-0.8-0.1c0.3-0.1,0.6-0.1,0.6,0.3c0,0.4-0.2,0.9-0.4,1.1
	C19.4,20.3,19.7,19.6,19.7,19.1z"/>
<path class="st7" d="M17.3,19.6c0.3,0,0.5,0.1,0.4,0.4c-0.1,0.3-0.3,0.7-0.6,0.8c0.3,0,0.6-0.4,0.8-0.8C18,19.5,17.6,19.5,17.3,19.6
	z"/>
<path class="st7" d="M16.1,21c-0.1,0-0.1,0-0.2,0.1c0,0,0,0,0,0c0.4-0.1,0.5,0.1,0.4,0.5c-0.1,0.2-0.2,0.4-0.3,0.5
	c0.2,0,0.4-0.3,0.5-0.6C16.6,21.1,16.4,20.9,16.1,21z"/>
<path class="st7" d="M18.2,20.8C18.2,20.8,18.2,20.8,18.2,20.8c0.3,0,0.5,0.3,0.2,0.8c-0.1,0.2-0.3,0.4-0.5,0.4
	c0.2,0,0.4-0.1,0.6-0.5C18.9,21.1,18.6,20.7,18.2,20.8z"/>
<path class="st7" d="M16.9,22.1C16.8,22,16.7,22,16.7,22c0,0,0.1,0,0.1,0.1c0.2,0.2,0.5,0.6,0.1,0.9c-0.1,0.1-0.2,0.1-0.4,0.1
	c0.2,0,0.4,0,0.5-0.1C17.4,22.7,17.1,22.3,16.9,22.1z"/>
<path class="st7" d="M14.5,23.7c0,0.2-0.1,0.3-0.5,0.4c-0.5,0.2-0.9,0.2-1-0.1c0.1,0.5,0.4,0.5,1,0.3C14.5,24.2,14.6,23.9,14.5,23.7
	z"/>
<path class="st7" d="M11.9,24.3c-0.6,0-0.9-0.2-0.9-0.5c-0.2,0.3,0.1,0.7,0.8,0.7c0.4,0,0.5-0.2,0.6-0.4
	C12.4,24.2,12.2,24.2,11.9,24.3z"/>
<path class="st7" d="M11,22.7c0.2-0.3,0.6-0.5,0.8-0.5c-0.3-0.1-0.8,0.1-1,0.5c-0.3,0.4,0.1,0.5,0.4,0.5C11,23.1,10.8,23,11,22.7z"
	/>
<path class="st6" d="M9.4,23.2c0.3-0.1,1.1,0,0.9,0.7c-0.2,0.6-0.7,0.4-1.2,0.2C8.6,23.8,8.7,23.4,9.4,23.2z"/>
<path class="st7" d="M9.3,24c-0.5-0.2-0.4-0.6,0.3-0.8c0,0,0.1,0,0.1,0c-0.1,0-0.2,0-0.3,0c-0.7,0.2-0.7,0.6-0.3,0.8
	c0.3,0.1,0.6,0.3,0.8,0.2C9.8,24.2,9.5,24.1,9.3,24z"/>
<path class="st7" d="M7.6,21.9c-0.1-0.5-0.2-0.7,0.3-0.9c0.1,0,0.1,0,0.2,0c-0.1,0-0.2,0-0.4,0c-0.5,0.2-0.4,0.4-0.3,0.9
	c0.1,0.4,0.4,0.6,0.6,0.6C7.8,22.3,7.7,22.2,7.6,21.9z"/>
<path class="st7" d="M9.5,20.8c-0.3-0.5,0.1-0.6,0.4-0.7c0,0,0,0,0.1,0c-0.1,0-0.1,0-0.2,0c-0.3,0.1-0.7,0.2-0.4,0.7
	c0.2,0.3,0.5,0.4,0.7,0.4C9.9,21.1,9.7,21,9.5,20.8z"/>
<path class="st7" d="M7.4,20c-0.1-0.3,0.4-1.3,0.9-1.3c0.1,0,0.2,0,0.3,0.1c-0.1-0.1-0.3-0.2-0.5-0.2c-0.4,0-0.9,1-0.9,1.3
	c0,0.2,0.2,0.4,0.3,0.4C7.5,20.2,7.4,20.1,7.4,20z"/>
<path class="st7" d="M10.2,19.2c-0.3-0.5,0.1-0.5,0.5-0.7c0.1-0.1,0.2-0.1,0.4-0.1c-0.1,0-0.3,0-0.5,0.1c-0.4,0.2-0.8,0.2-0.5,0.7
	c0.2,0.3,0.3,0.5,0.5,0.5C10.4,19.6,10.4,19.5,10.2,19.2z"/>
<path class="st7" d="M9,17.8c0.3-0.4,0.9-0.9,1.2-0.9c-0.3-0.2-1,0.4-1.4,0.8c-0.3,0.4,0,0.6,0.4,0.7C8.9,18.3,8.8,18.1,9,17.8z"/>
<path class="st6" d="M15.5,15.8c-0.6-0.1-0.5,0.1-0.7,0.5c-0.2,0.6,1.2,0.7,1.8,0.2C17.1,16,16.1,15.9,15.5,15.8z"/>
<path class="st6" d="M18,16.6c-0.4-0.1-0.9,0.1-0.8,0.4c0.2,0.5,1,0.6,1.4,0.3C19,17,18.4,16.7,18,16.6z"/>
<path class="st6" d="M12.7,15.7c-0.6,0.2-0.3,0.7-0.1,0.8c0.4,0.2,1.5-0.1,1.5-0.7S13.2,15.5,12.7,15.7z"/>
<path class="st7" d="M12.6,15.9c0.6-0.2,1.5-0.4,1.4,0.1c0,0,0,0.1,0,0.1c0-0.1,0.1-0.1,0.1-0.2c0.1-0.6-0.9-0.3-1.4-0.1
	c-0.2,0.1-0.3,0.2-0.3,0.3C12.4,16,12.5,15.9,12.6,15.9z"/>
<path class="st7" d="M15.5,15.8c-0.3-0.1-0.5,0-0.5,0.1C15,15.8,15.1,15.8,15.5,15.8c0.5,0.2,1.5,0.3,1.1,0.8c0,0,0,0,0.1,0
	C17.1,16,16.1,15.9,15.5,15.8z"/>
<path class="st7" d="M18,16.6c-0.2,0-0.5,0-0.7,0.1c0.2-0.1,0.4-0.1,0.6,0c0.4,0.1,1,0.4,0.6,0.7c0,0,0,0,0,0c0.1,0,0.1-0.1,0.2-0.1
	C19,17,18.4,16.7,18,16.6z"/>
<path class="st5" d="M6.2,20.1c0,0-0.5,1.9,0.9,3.2l4.1-1.9c0,0-3.7,1.5-4,1.5C6.8,22.9,6,21.8,6.2,20.1z"/>
<path class="st5" d="M15.3,23.9c0,0,0.5,0.4-1,0.9c-1.4,0.4-4.2,0.7-6.3-0.7c0,0,1.4,0.8,3.4,0.9S15.2,24.6,15.3,23.9z"/>
<path class="st5" d="M20,17.9c0,0,0.7,0.5,0.3,2.1c-0.5,1.6-2.4,3.8-4.1,3.9c0,0,1.6-0.3,2.9-2C20.4,20.1,20.6,18.6,20,17.9z"/>
<ellipse transform="matrix(0.9249 -0.3803 0.3803 0.9249 -6.1904 6.3156)" class="st3" cx="12.9" cy="18.8" rx="7.5" ry="5.3"/>
<path class="st4" d="M14.6,13.2c2.4,0,4.4,1,5.2,2.8c1.1,2.7-1.1,6.2-4.9,7.7c-1.3,0.5-2.5,0.8-3.7,0.8c-2.4,0-4.4-1-5.2-2.8
	c-1.1-2.7,1.1-6.2,4.9-7.7C12.1,13.4,13.4,13.2,14.6,13.2 M14.6,12.9L14.6,12.9c-1.3,0-2.6,0.3-3.8,0.8c-3.9,1.6-6.2,5.2-5,8.1
	c0.8,1.8,2.8,3,5.4,3c1.3,0,2.6-0.3,3.8-0.8c3.9-1.6,6.2-5.2,5-8.1C19.3,14.1,17.2,12.9,14.6,12.9L14.6,12.9z"/>
<path class="st5" d="M19.2,16.5c-0.1-0.5-0.7-0.2-1,0.2c-0.3,0.5,0,1.2,0.4,1.2S19.3,17,19.2,16.5z"/>
<path class="st5" d="M17.9,18.4c-0.4,0.2-0.5,0.8-0.4,1.1c0.1,0.3,0.6,0.2,0.9-0.4S18.3,18.3,17.9,18.4z"/>
<path class="st5" d="M16.7,17.4c-0.6,0.4-0.5,0.9-0.1,1.1s0.7-0.4,0.8-0.9C17.5,17.1,17.1,17.2,16.7,17.4z"/>
<path class="st5" d="M16.8,19.9c-0.3-0.2-0.3,0-0.5,0.5c-0.2,0.5,0.4,0.7,0.8,0.4C17.4,20.4,17.1,20.1,16.8,19.9z"/>
<path class="st5" d="M15.8,18.9c-0.5,0.2-0.4,0.7-0.2,1s0.6-0.1,0.7-0.5S16.2,18.8,15.8,18.9z"/>
<path class="st5" d="M14.4,21.9c-0.7-0.5-1.4,0.1-1.3,0.6s0.5,0.5,1.1,0.2C14.8,22.4,14.6,22,14.4,21.9z"/>
<path class="st5" d="M12.2,22.2c-0.5-0.2-0.9-0.1-1.1,0.3c-0.2,0.4,0.2,0.7,0.9,0.6C12.8,23,12.6,22.3,12.2,22.2z"/>
<path class="st5" d="M11.9,21.1c-0.1-0.4-0.9-0.1-1.2,0.4c-0.3,0.5,0.5,0.5,0.8,0.3C11.7,21.8,12,21.5,11.9,21.1z"/>
<path class="st5" d="M9.4,22.3c-0.7,0.3-0.6,0.7-0.1,0.9s1.1,0.3,1.2-0.3S9.7,22.1,9.4,22.3z"/>
<path class="st5" d="M7.3,20.1c-0.4,0.2-0.4,0.5-0.2,0.9c0.4,0.9,1.3,0.4,1.2-0.2S7.7,19.8,7.3,20.1z"/>
<path class="st5" d="M8,18.7c0.3-0.7-0.2-1.1-0.7-1c-0.4,0.1-0.8,1.1-0.7,1.4C6.9,19.9,7.7,19.4,8,18.7z"/>
<path class="st5" d="M9.2,15.8c-0.3-0.2-1,0.5-1.2,1c-0.3,0.7,0.8,0.8,1.1,0.4C9.4,16.9,9.5,16,9.2,15.8z"/>
<path class="st5" d="M9.7,17.3C9.4,17.5,9,17.6,9.3,18c0.3,0.4,0.5,0.6,0.9,0.2C10.6,17.7,10.6,16.7,9.7,17.3z"/>
<path class="st5" d="M9.2,18.9c-0.3,0.2-0.7,0.3-0.3,0.8c0.4,0.5,1,0.3,1.1-0.1C10.1,19.1,9.7,18.6,9.2,18.9z"/>
<path class="st5" d="M14.3,13.7c-0.7,0-0.5,0.2-0.6,0.6c-0.1,0.6,1.3,0.5,1.8,0C16,13.7,15,13.7,14.3,13.7z"/>
<path class="st5" d="M17,14.2c-0.4,0-0.9,0.2-0.7,0.5c0.2,0.5,1.1,0.4,1.5,0.1C18.1,14.4,17.3,14.2,17,14.2z"/>
<path class="st5" d="M11.6,14.1c-0.5,0.3-0.2,0.8,0,0.8C12,15,13,14.6,13,14C13,13.4,12.1,13.8,11.6,14.1z"/>
<path class="st6" d="M19,16.5c-0.1-0.5-0.7-0.2-1,0.2c-0.3,0.5,0,1.2,0.4,1.2C18.8,17.8,19.1,17,19,16.5z"/>
<path class="st6" d="M17.8,18.4c-0.4,0.2-0.5,0.8-0.4,1.1c0.1,0.3,0.6,0.2,0.9-0.4C18.5,18.6,18.1,18.3,17.8,18.4z"/>
<path class="st6" d="M16.6,17.4c-0.6,0.4-0.5,0.9-0.1,1.1s0.7-0.4,0.8-0.9C17.4,17.2,16.9,17.2,16.6,17.4z"/>
<path class="st6" d="M16.7,19.9c-0.2-0.2-0.3,0-0.5,0.5c-0.2,0.5,0.4,0.7,0.8,0.4C17.3,20.4,16.9,20.1,16.7,19.9z"/>
<path class="st6" d="M15.7,18.9c-0.5,0.2-0.4,0.7-0.2,1c0.2,0.3,0.6-0.1,0.7-0.5S16,18.8,15.7,18.9z"/>
<path class="st6" d="M14.4,21.7c0.2,0.2,0.4,0.5-0.2,0.8c-0.6,0.3-1,0.3-1.1-0.2C12.9,21.8,13.7,21.2,14.4,21.7z"/>
<path class="st6" d="M12.3,22c0.3,0.1,0.5,0.8-0.2,0.9s-1.1-0.2-0.9-0.6C11.4,21.9,11.7,21.8,12.3,22z"/>
<path class="st6" d="M9.4,22.1c0.3-0.1,1.1-0.1,1,0.5c-0.1,0.7-0.7,0.5-1.2,0.3C8.8,22.8,8.7,22.4,9.4,22.1z"/>
<path class="st6" d="M11.5,21.7c-0.3,0.1-1.1,0.2-0.8-0.3c0.3-0.5,1.1-0.8,1.2-0.4C12,21.3,11.8,21.6,11.5,21.7z"/>
<path class="st6" d="M7.4,20.1C7,20.3,7,20.6,7.2,21c0.4,0.9,1.3,0.4,1.2-0.2C8.3,20.3,7.8,19.8,7.4,20.1z"/>
<path class="st6" d="M8.1,18.7c0.3-0.7-0.2-1.1-0.7-1c-0.4,0.1-0.8,1.1-0.7,1.4C7.1,19.9,7.8,19.4,8.1,18.7z"/>
<path class="st6" d="M9.3,15.8c-0.3-0.2-1,0.5-1.2,1c-0.3,0.7,0.8,0.8,1.1,0.4C9.5,16.9,9.6,16,9.3,15.8z"/>
<path class="st6" d="M9.9,17.3c-0.4,0.2-0.7,0.3-0.4,0.7c0.3,0.4,0.5,0.6,0.9,0.2S10.7,16.7,9.9,17.3z"/>
<path class="st6" d="M9.4,18.9c-0.3,0.2-0.7,0.3-0.3,0.8c0.4,0.5,1,0.3,1.1-0.1C10.2,19.1,9.8,18.6,9.4,18.9z"/>
<path class="st6" d="M11.6,15c-0.2-0.1-0.6-0.6,0-0.8c0.5-0.3,1.4-0.7,1.4-0.1C13,14.7,12,15.2,11.6,15z"/>
<path class="st7" d="M19,16.5c-0.1-0.4-0.5-0.3-0.8,0c0.3-0.1,0.5-0.2,0.6,0.2c0.1,0.4,0,0.9-0.3,1.2C18.9,17.7,19.1,17,19,16.5z"/>
<path class="st7" d="M16.7,17.4c0.2-0.1,0.5,0,0.4,0.3c-0.1,0.3-0.2,0.7-0.5,0.9c0.3,0,0.6-0.5,0.7-0.9C17.4,17.2,17,17.2,16.7,17.4
	z"/>
<path class="st7" d="M15.7,18.9c-0.1,0-0.1,0.1-0.2,0.1c0,0,0,0,0,0c0.4-0.1,0.5,0,0.5,0.4c0,0.2-0.1,0.4-0.3,0.5
	c0.2-0.1,0.4-0.3,0.4-0.6C16.2,18.9,16,18.8,15.7,18.9z"/>
<path class="st7" d="M17.8,18.4C17.8,18.4,17.8,18.4,17.8,18.4c0.3,0,0.5,0.3,0.3,0.8c-0.1,0.3-0.3,0.4-0.4,0.5
	c0.2,0,0.4-0.2,0.5-0.5C18.5,18.6,18.1,18.3,17.8,18.4z"/>
<path class="st7" d="M16.7,19.9c-0.1-0.1-0.2-0.1-0.2-0.1c0,0,0.1,0,0.1,0.1c0.2,0.2,0.6,0.5,0.2,0.9c-0.1,0.1-0.2,0.2-0.3,0.2
	c0.2,0,0.4,0,0.5-0.2C17.3,20.4,16.9,20.1,16.7,19.9z"/>
<path class="st7" d="M14.5,21.8c0,0.2-0.1,0.3-0.4,0.5c-0.5,0.2-0.8,0.3-1,0c0.1,0.5,0.5,0.5,1.1,0.2C14.7,22.3,14.6,22,14.5,21.8z"
	/>
<path class="st7" d="M12.1,22.8c-0.6,0.1-0.9-0.1-1-0.4C11,22.8,11.3,23,12,22.9c0.4-0.1,0.5-0.3,0.5-0.5
	C12.5,22.6,12.3,22.7,12.1,22.8z"/>
<path class="st7" d="M10.9,21.3c0.2-0.3,0.5-0.5,0.8-0.6c-0.3,0-0.8,0.2-1,0.6s0.2,0.5,0.5,0.4C11,21.8,10.8,21.6,10.9,21.3z"/>
<path class="st6" d="M9.4,22.1c0.3-0.1,1.1-0.1,1,0.5c-0.1,0.7-0.7,0.5-1.2,0.3C8.8,22.8,8.7,22.4,9.4,22.1z"/>
<path class="st7" d="M9.5,22.9C9,22.8,9,22.4,9.6,22.1c0,0,0.1,0,0.1,0c-0.1,0-0.2,0-0.3,0.1c-0.7,0.3-0.6,0.7-0.1,0.9
	c0.3,0.1,0.6,0.2,0.9,0.1C9.9,23,9.7,23,9.5,22.9z"/>
<path class="st7" d="M7.4,21c-0.2-0.5-0.3-0.7,0.2-0.9c0.1,0,0.1-0.1,0.2-0.1c-0.1,0-0.2,0-0.3,0.1C7,20.3,7,20.6,7.2,21
	c0.2,0.4,0.4,0.5,0.7,0.5C7.7,21.5,7.5,21.3,7.4,21z"/>
<path class="st7" d="M9.2,19.6c-0.4-0.5,0-0.6,0.3-0.8c0,0,0,0,0.1,0c-0.1,0-0.1,0-0.2,0.1c-0.3,0.2-0.7,0.3-0.3,0.8
	C9.3,20,9.6,20,9.9,19.9C9.6,20,9.4,19.9,9.2,19.6z"/>
<path class="st7" d="M7,19.2c-0.1-0.3,0.2-1.3,0.7-1.4c0.1,0,0.2,0,0.3,0c-0.1-0.1-0.3-0.1-0.5-0.1c-0.4,0.1-0.8,1.1-0.7,1.4
	c0.1,0.2,0.2,0.4,0.4,0.4C7.1,19.4,7,19.3,7,19.2z"/>
<path class="st7" d="M9.7,18c-0.3-0.4,0-0.5,0.4-0.7c0.1-0.1,0.2-0.1,0.3-0.2c-0.1,0-0.3,0-0.5,0.2c-0.4,0.2-0.7,0.3-0.4,0.7
	c0.2,0.3,0.4,0.5,0.6,0.4C9.9,18.4,9.8,18.2,9.7,18z"/>
<path class="st7" d="M8.2,16.8c0.2-0.4,0.7-1,1.1-1c-0.3-0.2-1,0.5-1.2,1c-0.2,0.4,0.1,0.6,0.5,0.6C8.2,17.4,8,17.2,8.2,16.8z"/>
<path class="st6" d="M14.3,13.8c-0.7,0-0.5,0.2-0.6,0.6c-0.1,0.6,1.3,0.5,1.8,0C16,13.8,15,13.9,14.3,13.8z"/>
<path class="st6" d="M17,14.3c-0.4,0-0.9,0.2-0.7,0.5c0.2,0.5,1.1,0.4,1.5,0.1C18.1,14.5,17.3,14.3,17,14.3z"/>
<path class="st6" d="M11.5,14.2c-0.5,0.3-0.2,0.8,0,0.8c0.4,0.1,1.4-0.3,1.4-0.9C12.9,13.6,12.1,13.9,11.5,14.2z"/>
<path class="st7" d="M11.5,14.4c0.5-0.3,1.4-0.7,1.4-0.1c0,0,0,0.1,0,0.1c0-0.1,0-0.2,0-0.2c0-0.6-0.9-0.2-1.4,0.1
	c-0.2,0.1-0.3,0.2-0.3,0.4C11.3,14.5,11.4,14.4,11.5,14.4z"/>
<path class="st7" d="M14.3,13.8c-0.3,0-0.5,0-0.5,0.2C13.9,13.9,14,13.9,14.3,13.8c0.6,0.1,1.5,0.1,1.2,0.6c0,0,0,0,0.1-0.1
	C16,13.8,15,13.9,14.3,13.8z"/>
<path class="st7" d="M17,14.3c-0.2,0-0.5,0.1-0.7,0.2c0.2-0.1,0.4-0.1,0.5-0.1c0.4,0,1.1,0.2,0.7,0.6c0,0,0,0,0,0
	c0.1,0,0.1-0.1,0.2-0.1C18.1,14.5,17.3,14.3,17,14.3z"/>
<path class="st5" d="M5.8,19.4c0,0-0.2,2,1.3,3L11,20c0,0-3.4,2-3.8,2.1C6.8,22.2,5.9,21.2,5.8,19.4z"/>
<path class="st5" d="M15.4,21.9c0,0,0.5,0.4-0.9,1c-1.3,0.6-4.1,1.3-6.4,0.3c0,0,1.5,0.6,3.4,0.4S15.4,22.6,15.4,21.9z"/>
<path class="st5" d="M19.1,15.3c0,0,0.8,0.4,0.6,2c-0.2,1.6-1.8,4.2-3.5,4.5c0,0,1.5-0.5,2.6-2.4S19.9,15.8,19.1,15.3z"/>
<g>
	<defs>
		<ellipse id="SVGID_1_" transform="matrix(0.9249 -0.3803 0.3803 0.9249 -6.1904 6.3156)" cx="12.9" cy="18.8" rx="7.5" ry="5.3"/>
	</defs>
	<clipPath id="SVGID_2_">
		<use xlink:href="#SVGID_1_"  style="overflow:visible;"/>
	</clipPath>
	<g class="st8">
		<path class="st9" d="M19.9,16.1c-0.5,4.3-3.3,5.7-3.7,5.6c-0.5-0.1-3-2.9-3-2.9s0.9-0.6,2-1.3s3.7-2.3,3.9-2.3
			c0.2,0,0.7,0.6,0.7,0.6c-0.4-1.4-1.5-1.8-1.5-1.8c0.4,0.3,0.4,0.8-0.3,1.2c-0.6,0.4-5,3.3-5,3.3s-1.4-2.2-2.1-3.2
			c-0.6-1-0.5-1.5-0.5-1.5L10,14.3c0,0,2.8,4.2,2.8,4.4s-5.6,3.8-5.6,3.8c-2.2-1.6-1-4.5-1-4.5c-1.7,2.2-0.5,4,0.2,4.7l-0.2,0
			l0.3,0.7l0.4,0.1c0.2,0.1,0.8,0.4,1.6,0.8c1.2,0.6,7.4,0.8,10.2-2.6S19.9,16.1,19.9,16.1z M15.2,22.5c-0.3,0.3-2.1,1.3-4.8,1.2
			c-2.2-0.1-2.5-0.6-2.6-0.7c0-0.3,0.2-0.5,0.4-0.7c0.4-0.3,1-0.6,1.5-1c1.1-0.8,3.3-2.2,3.3-2.2s1.1,1.3,1.8,2.2
			S15.5,22.2,15.2,22.5z"/>
	</g>
</g>
<path class="st10" d="M10.9,18c0.2,0.3,1,0.4,1.4-0.3c0.4-0.7,0.5-1.4-0.7-1.6c-1.1-0.3-1.3,0.1-1.3,0.6
	C10.2,17.1,10.5,17.6,10.9,18z"/>
<path class="st11" d="M11,15.9c0.2,0,0.4,0,0.7,0.1c1.1,0.3,1.1,0.9,0.7,1.6c-0.2,0.4-0.6,0.5-0.8,0.5c-0.2,0-0.4-0.1-0.5-0.2
	c-0.3-0.4-0.7-0.9-0.6-1.4C10.3,16.2,10.4,15.9,11,15.9 M11,15.7c-0.8,0-0.9,0.6-0.9,0.9c-0.1,0.7,0.3,1.2,0.6,1.6
	c0.2,0.2,0.4,0.3,0.7,0.3c0.4,0,0.8-0.2,1.1-0.6c0.3-0.5,0.4-0.9,0.2-1.3c-0.1-0.3-0.5-0.6-1.1-0.7C11.4,15.7,11.2,15.7,11,15.7
	L11,15.7z"/>
<g>
	<defs>
		<path id="SVGID_3_" d="M10.9,18c0.2,0.3,1,0.4,1.4-0.3c0.4-0.7,0.5-1.4-0.7-1.6c-1.1-0.3-1.3,0.1-1.3,0.6
			C10.2,17.1,10.5,17.6,10.9,18z"/>
	</defs>
	<clipPath id="SVGID_4_">
		<use xlink:href="#SVGID_3_"  style="overflow:visible;"/>
	</clipPath>
	<g class="st12">
		<path class="st13" d="M10.3,17.1c0,0,0.3,0.4,0.7,0.4c0,0,0,0.4,0.4,0.4c0,0,0.2,0.2,0.5,0s0.2-0.3,0.2-0.3s-0.1,0-0.2-0.1
			c0,0,0.3,0,0.4-0.2c0,0,0.2,0,0.2-0.2c0.1-0.2-0.1-0.3-0.1-0.3S12.2,17,12.1,17c0,0,0.2-0.4-0.1-0.6c-0.1-0.2-0.3-0.4-0.5-0.5
			c0,0,1,0.4,1.1,0.6c0.1,0.2,0.2,0.6,0.1,0.7c0,0.1-0.4,0.9-0.6,1.1c-0.2,0.2-0.4,0.2-0.7,0.2c-0.3,0-0.8-0.1-0.9-0.2
			C10.5,18.2,10,17.5,10.3,17.1z"/>
	</g>
</g>
<path class="st14" d="M11.8,16.5c0,0,0.2-0.3-0.3-0.4C11.6,16.1,11.9,16.3,11.8,16.5z"/>
<path class="st14" d="M11.1,16.1c0,0,0.3,0.2,0.3,0.4C11.4,16.6,11.6,16.2,11.1,16.1z"/>
<path class="st14" d="M10.9,16.3c-0.1-0.4-0.4,0-0.4,0C10.7,16,10.9,16.3,10.9,16.3z"/>
<path class="st14" d="M11.7,16.8c0,0,0.2,0.2,0,0.5C11.6,17.2,12,17,11.7,16.8z"/>
<path class="st14" d="M12.1,17c0,0,0.4-0.3-0.1-0.5C12,16.6,12.2,16.8,12.1,17z"/>
<path class="st14" d="M12.1,17.2c0,0.2-0.3,0.3-0.3,0.3C12.3,17.5,12.1,17.2,12.1,17.2z"/>
<path class="st14" d="M11.5,17.6c-0.1,0.2-0.3,0.3-0.3,0.3C11.6,17.9,11.5,17.6,11.5,17.6z"/>
<path class="st14" d="M11.1,17.4c-0.1,0.1-0.4-0.1-0.4-0.1C10.9,17.6,11.1,17.4,11.1,17.4z"/>
<path class="st10" d="M14.3,15.8c-0.3,0.2-0.6,0.8-0.1,1.4c0.6,0.6,1.2,0.8,1.7-0.2c0.5-1,0.3-1.2-0.2-1.4
	C15.3,15.3,14.7,15.5,14.3,15.8z"/>
<path class="st11" d="M15.3,15.5c0.2,0,0.3,0,0.5,0.1c0.5,0.2,0.7,0.4,0.2,1.4c-0.3,0.5-0.6,0.7-0.9,0.7s-0.6-0.2-0.9-0.5
	c-0.6-0.6-0.3-1.3,0.1-1.4C14.6,15.6,15,15.5,15.3,15.5 M15.3,15.2c-0.3,0-0.7,0.1-1.1,0.3c-0.2,0.1-0.4,0.4-0.5,0.7
	c-0.1,0.4,0.1,0.8,0.4,1.1c0.4,0.4,0.7,0.6,1.1,0.6c0.4,0,0.8-0.3,1.1-0.8c0.3-0.6,0.4-1,0.3-1.3c-0.1-0.3-0.4-0.4-0.6-0.5
	C15.7,15.2,15.5,15.2,15.3,15.2L15.3,15.2z"/>
<g>
	<defs>
		<path id="SVGID_5_" d="M14.3,15.8c-0.3,0.2-0.6,0.8-0.1,1.4c0.6,0.6,1.2,0.8,1.7-0.2c0.5-1,0.3-1.2-0.2-1.4
			C15.3,15.3,14.7,15.5,14.3,15.8z"/>
	</defs>
	<clipPath id="SVGID_6_">
		<use xlink:href="#SVGID_5_"  style="overflow:visible;"/>
	</clipPath>
	<g class="st15">
		<path class="st13" d="M15.3,15.4c0,0-0.5,0.2-0.6,0.5c0,0-0.4-0.1-0.5,0.3c0,0-0.3,0.1-0.1,0.5c0.1,0.3,0.2,0.3,0.2,0.3
			s0-0.1,0.2-0.2c0,0-0.1,0.3,0.1,0.4c0,0-0.1,0.1,0.1,0.3c0.2,0.1,0.3,0,0.3,0s-0.2-0.1-0.2-0.2c0,0,0.3,0.3,0.6,0
			c0.2,0,0.5-0.1,0.6-0.3c0,0-0.6,0.9-0.8,1c-0.2,0-0.7,0-0.7-0.1c-0.1-0.1-0.8-0.6-0.9-0.8s-0.1-0.5,0-0.7c0.1-0.2,0.3-0.7,0.4-0.8
			C14.1,15.3,14.9,15,15.3,15.4z"/>
	</g>
</g>
<path class="st14" d="M15.4,17.1c0,0,0.3,0.3,0.5-0.1C15.9,16.9,15.6,17.1,15.4,17.1z"/>
<path class="st14" d="M16,16.5c0,0-0.3,0.2-0.5,0.2C15.5,16.6,15.8,16.9,16,16.5z"/>
<path class="st14" d="M15.9,16.2c0.4,0,0.2-0.4,0.2-0.4C16.2,16.1,15.9,16.2,15.9,16.2z"/>
<path class="st14" d="M15.2,16.8c0,0-0.3,0.1-0.4-0.1C14.8,16.7,14.9,17.1,15.2,16.8z"/>
<path class="st14" d="M14.8,17.1c0,0,0.2,0.4,0.5,0C15.3,17.2,15.1,17.3,14.8,17.1z"/>
<path class="st14" d="M14.7,17.1c-0.2-0.1-0.2-0.4-0.2-0.4C14.4,17.2,14.7,17.1,14.7,17.1z"/>
<path class="st14" d="M14.5,16.5c-0.2-0.1-0.2-0.4-0.2-0.4C14.1,16.4,14.5,16.5,14.5,16.5z"/>
<path class="st14" d="M14.7,16.1c-0.1-0.1,0.2-0.3,0.2-0.3C14.6,15.8,14.7,16.1,14.7,16.1z"/>
<path class="st10" d="M12,16.6c0.1,0.4,0.6,0.9,1.4,0.6c0.8-0.4,1.3-1,0.4-1.9c-0.9-0.9-1.2-0.7-1.5-0.3
	C11.9,15.5,11.9,16.1,12,16.6z"/>
<path class="st11" d="M12.9,14.7c0.2,0,0.5,0.2,1,0.7c0.9,0.9,0.4,1.5-0.4,1.9c-0.2,0.1-0.3,0.1-0.5,0.1c-0.5,0-0.9-0.4-0.9-0.7
	c-0.1-0.6-0.1-1.2,0.3-1.6C12.5,14.8,12.7,14.7,12.9,14.7 M12.9,14.4c-0.3,0-0.6,0.2-0.7,0.4c-0.5,0.5-0.5,1.3-0.4,1.8
	c0.1,0.4,0.5,0.9,1.2,0.9c0.2,0,0.4-0.1,0.6-0.1c0.6-0.3,0.9-0.6,1-1c0.1-0.4-0.1-0.8-0.5-1.3C13.6,14.7,13.2,14.4,12.9,14.4
	L12.9,14.4z"/>
<g>
	<defs>
		<path id="SVGID_7_" d="M12,16.6c0.1,0.4,0.6,0.9,1.4,0.6c0.8-0.4,1.3-1,0.4-1.9c-0.9-0.9-1.2-0.7-1.5-0.3
			C11.9,15.5,11.9,16.1,12,16.6z"/>
	</defs>
	<clipPath id="SVGID_8_">
		<use xlink:href="#SVGID_7_"  style="overflow:visible;"/>
	</clipPath>
	<g class="st16">
		<path class="st13" d="M12,15.5c0,0,0,0.5,0.3,0.8c0,0-0.3,0.4,0.1,0.6c0,0,0.1,0.3,0.5,0.3s0.4-0.2,0.4-0.2s-0.1,0-0.2-0.2
			c0,0,0.3,0.2,0.5,0c0,0,0.1,0.1,0.3,0c0.2-0.1,0.1-0.3,0.1-0.3s-0.2,0.2-0.3,0.1c0,0,0.4-0.2,0.2-0.6c0.1-0.3,0-0.5-0.1-0.8
			c0,0,0.7,1,0.7,1.2s-0.2,0.7-0.3,0.7s-0.9,0.6-1.2,0.7c-0.3,0.1-0.5-0.1-0.7-0.3c-0.2-0.2-0.6-0.6-0.6-0.7
			C11.5,16.6,11.5,15.7,12,15.5z"/>
	</g>
</g>
<path class="st14" d="M13.7,16c0,0,0.4-0.2,0-0.6C13.8,15.4,13.9,15.7,13.7,16z"/>
<path class="st14" d="M13.3,15.1c0,0,0.2,0.4,0,0.6C13.4,15.7,13.7,15.5,13.3,15.1z"/>
<path class="st14" d="M13.1,15.1c0.2-0.5-0.4-0.3-0.4-0.3C13,14.8,13.1,15.1,13.1,15.1z"/>
<path class="st14" d="M13.4,16.1c0,0,0,0.4-0.3,0.4C13.1,16.5,13.7,16.5,13.4,16.1z"/>
<path class="st14" d="M13.6,16.5c0,0,0.5,0,0.2-0.5C13.8,16.1,13.9,16.4,13.6,16.5z"/>
<path class="st14" d="M13.6,16.7c-0.1,0.2-0.5,0.1-0.5,0.1C13.5,17.1,13.6,16.7,13.6,16.7z"/>
<path class="st14" d="M12.8,16.7c-0.2,0.2-0.4,0.1-0.4,0.1C12.6,17,12.8,16.7,12.8,16.7z"/>
<path class="st14" d="M12.6,16.3c-0.2,0-0.3-0.3-0.3-0.3C12.2,16.3,12.6,16.3,12.6,16.3z"/>
<circle class="st17" cx="14.2" cy="19" r="1.1"/>
<path class="st18" d="M14.2,17.9c0.6,0,1.1,0.5,1.1,1.1c0,0.6-0.5,1.1-1.1,1.1s-1.1-0.5-1.1-1.1C13.1,18.4,13.6,17.9,14.2,17.9
	L14.2,17.9 M14.2,17.7c-0.7,0-1.3,0.6-1.3,1.3c0,0.7,0.6,1.3,1.3,1.3c0.7,0,1.3-0.6,1.3-1.3v0C15.5,18.3,14.9,17.7,14.2,17.7z"/>
<path class="st19" d="M14.4,19.8c-0.6,0-1.1-0.5-1.1-1.1c0-0.1,0-0.3,0.1-0.4c-0.4,0.5-0.4,1.1,0.1,1.6c0.5,0.4,1.1,0.4,1.6-0.1
	c0.1-0.1,0.2-0.2,0.2-0.3C15,19.6,14.7,19.8,14.4,19.8z"/>
<path class="st19" d="M14.4,18.3c0.2,0,0.6,0.3,0.3,0.4S14.1,18.4,14.4,18.3z"/>
<path class="st20" d="M14.8,19.1c-0.2,0-0.4,0.1-0.2,0.2C14.8,19.5,15,19.1,14.8,19.1z"/>
<path class="st20" d="M14.1,19.2c-0.1,0-0.2,0.1-0.1,0.2C14.2,19.5,14.3,19.3,14.1,19.2z"/>
<path class="st20" d="M14.5,18.1c0,0-0.6-0.1-1,0.3c-0.1,0.1-0.1,0.2,0,0.2C13.6,18.8,13.8,18.1,14.5,18.1z"/>
<path class="st20" d="M13.3,18.8c-0.1,0-0.2,0.2,0,0.3S13.4,18.7,13.3,18.8z"/>
<circle class="st17" cx="12.2" cy="18.9" r="1.1"/>
<path class="st18" d="M12.2,17.8c0.6,0,1.1,0.5,1.1,1.1c0,0.6-0.5,1.1-1.1,1.1c-0.6,0-1.1-0.5-1.1-1.1S11.5,17.8,12.2,17.8
	C12.2,17.8,12.2,17.8,12.2,17.8 M12.2,17.5L12.2,17.5c-0.7,0-1.3,0.6-1.3,1.4c0,0.6,0.4,1.2,1,1.3c0.1,0,0.2,0,0.3,0
	c0.7,0,1.3-0.6,1.3-1.4C13.5,18.1,12.9,17.5,12.2,17.5L12.2,17.5z"/>
<path class="st19" d="M13,18.9c-0.1,0.6-0.7,0.9-1.3,0.8c-0.1,0-0.3-0.1-0.4-0.2c0.3,0.5,1,0.6,1.5,0.3s0.6-1,0.3-1.5
	C13,18.1,12.9,18,12.8,18C13,18.2,13.1,18.5,13,18.9z"/>
<path class="st19" d="M11.6,18.5c0-0.2,0.5-0.5,0.5-0.2C12.1,18.6,11.6,18.8,11.6,18.5z"/>
<path class="st20" d="M12.4,18.3c0,0.1,0,0.4,0.2,0.2C12.8,18.3,12.5,18.1,12.4,18.3z"/>
<path class="st20" d="M12.4,19c-0.1,0.1,0.1,0.2,0.2,0.1C12.7,19,12.5,18.9,12.4,19z"/>
<path class="st20" d="M11.4,18.4c0,0-0.2,0.5,0.1,1c0,0.1,0.1,0.1,0.2,0.1C11.8,19.4,11.2,19,11.4,18.4z"/>
<path class="st20" d="M11.8,19.7c0,0.1,0.2,0.2,0.3,0.1C12.2,19.7,11.7,19.6,11.8,19.7z"/>
<circle class="st17" cx="13.5" cy="17.5" r="1.1"/>
<path class="st18" d="M13.5,16.4c0.6,0,1.1,0.5,1.1,1.1c0,0.6-0.5,1.1-1.1,1.1c-0.6,0-1.1-0.5-1.1-1.1c0-0.1,0-0.2,0-0.3
	C12.5,16.8,13,16.4,13.5,16.4 M13.5,16.2L13.5,16.2c-0.7,0-1.4,0.6-1.4,1.4c0,0.7,0.6,1.4,1.4,1.4s1.4-0.6,1.4-1.4
	c0-0.6-0.4-1.2-1-1.3C13.7,16.2,13.6,16.2,13.5,16.2L13.5,16.2z"/>
<path class="st19" d="M14.3,17.5c-0.1,0.6-0.7,0.9-1.3,0.8c-0.1,0-0.3-0.1-0.4-0.2c0.3,0.5,1,0.6,1.5,0.3c0.5-0.3,0.6-1,0.3-1.5
	c-0.1-0.1-0.2-0.2-0.3-0.3C14.3,16.9,14.4,17.2,14.3,17.5z"/>
<path class="st19" d="M12.9,17.2c0-0.2,0.5-0.5,0.5-0.2C13.4,17.3,12.9,17.5,12.9,17.2z"/>
<path class="st20" d="M13.7,17c0,0.1,0,0.4,0.2,0.2S13.8,16.7,13.7,17z"/>
<path class="st20" d="M13.7,17.7c-0.1,0.1,0.1,0.2,0.2,0.1C14,17.6,13.8,17.5,13.7,17.7z"/>
<path class="st20" d="M12.6,17c0,0-0.2,0.5,0.1,1c0,0.1,0.1,0.1,0.2,0.1C13.1,18.1,12.5,17.6,12.6,17z"/>
<path class="st20" d="M13.1,18.4c0,0.1,0.2,0.2,0.3,0.1S13,18.3,13.1,18.4z"/>
<path class="st21" d="M11.9,20.4c-0.2-0.2-0.8-0.5-1.2-0.6s-0.6,0.3-0.9,0.7c-0.3,0.4-0.5,0.8-0.4,1.1c0.1,0.3,0.7,0.5,1.2,0.7
	c0.6,0.2,0.7,0.2,0.9-0.1C11.6,21.9,12.2,20.7,11.9,20.4z"/>
<path class="st22" d="M10.5,19.8c0,0,0.1,0,0.1,0c0.4,0.1,1,0.4,1.2,0.6c0.3,0.3-0.3,1.5-0.5,1.7c-0.1,0.1-0.2,0.2-0.3,0.2
	c-0.1,0-0.3-0.1-0.6-0.1c-0.5-0.1-1.1-0.3-1.2-0.7c-0.1-0.3,0.2-0.7,0.4-1.1C10,20.1,10.2,19.8,10.5,19.8 M10.5,19.6
	c-0.4,0-0.7,0.4-0.9,0.8l-0.1,0.1c-0.3,0.4-0.5,0.8-0.4,1.2c0.1,0.3,0.5,0.6,1.3,0.8c0.3,0.1,0.5,0.1,0.7,0.1c0.2,0,0.4-0.1,0.5-0.3
	c0,0,1-1.5,0.4-2c-0.2-0.2-0.9-0.6-1.3-0.6C10.6,19.6,10.6,19.6,10.5,19.6L10.5,19.6z"/>
<g>
	<defs>
		<path id="SVGID_9_" d="M11.9,20.4c-0.2-0.2-0.8-0.5-1.2-0.6s-0.6,0.3-0.9,0.7c-0.3,0.4-0.5,0.8-0.4,1.1c0.1,0.3,0.7,0.5,1.2,0.7
			c0.6,0.2,0.7,0.2,0.9-0.1C11.6,21.9,12.2,20.7,11.9,20.4z"/>
	</defs>
	<clipPath id="SVGID_10_">
		<use xlink:href="#SVGID_9_"  style="overflow:visible;"/>
	</clipPath>
	<g class="st23">
		<path class="st24" d="M10.6,19.8c0,0-0.3,0-0.6,0.5s-0.7,1-0.5,1.2c0.3,0.2,1.3,0.7,1.6,0.6l0,0.4c0,0-1.6-0.3-1.9-0.7
			c-0.3-0.4-0.2-0.6,0-0.8C9.4,20.6,9.4,19.2,10.6,19.8z"/>
	</g>
</g>
<g>
	<defs>
		<path id="SVGID_11_" d="M11.9,20.4c-0.2-0.2-0.8-0.5-1.2-0.6s-0.6,0.3-0.9,0.7c-0.3,0.4-0.5,0.8-0.4,1.1c0.1,0.3,0.7,0.5,1.2,0.7
			c0.6,0.2,0.7,0.2,0.9-0.1C11.6,21.9,12.2,20.7,11.9,20.4z"/>
	</defs>
	<clipPath id="SVGID_12_">
		<use xlink:href="#SVGID_11_"  style="overflow:visible;"/>
	</clipPath>
	<g class="st25">
		<path class="st26" d="M11.7,20.2c0,0-0.5,0.8-0.3,1.4c0,0,0.2,0.3-0.3,0.5l0,0.4c0,0,0.5-0.1,0.8-1.1c0.3-1,0.2-1.1,0.1-1.1
			S11.9,20,11.7,20.2z"/>
	</g>
</g>
<path class="st24" d="M10.5,20c-0.1,0-0.4,0.3-0.3,0.4S10.7,20,10.5,20z"/>
<path class="st24" d="M10,20.8c-0.2,0-0.4,0.3-0.3,0.5C9.8,21.4,10.1,20.7,10,20.8z"/>
<path class="st21" d="M12.1,20.4c0.2,0,1,0,1.3,0.1c0.4,0.1,0.4,0.5,0.5,1c0,0.5,0.1,0.9-0.1,1.2c-0.2,0.2-0.8,0.1-1.3,0
	c-0.6-0.1-0.8-0.2-0.8-0.5C11.6,21.8,11.7,20.5,12.1,20.4z"/>
<path class="st22" d="M12.5,20.4c0.3,0,0.7,0,0.9,0.1c0.4,0.1,0.4,0.5,0.5,1c0,0.5,0.1,0.9-0.1,1.2c-0.1,0.1-0.3,0.1-0.5,0.1
	c-0.3,0-0.6-0.1-0.9-0.1c-0.6-0.1-0.8-0.2-0.8-0.5c0-0.3,0-1.7,0.5-1.7C12.3,20.4,12.4,20.4,12.5,20.4 M12.5,20.2L12.5,20.2
	c-0.2,0-0.3,0-0.5,0c-0.7,0.1-0.6,1.9-0.6,1.9c0,0.5,0.3,0.5,0.9,0.7c0.4,0.1,0.7,0.1,0.9,0.1c0.3,0,0.5-0.1,0.6-0.2
	c0.3-0.3,0.2-0.7,0.2-1.2l0-0.1c0-0.4-0.1-1-0.6-1.2C13.2,20.2,12.7,20.2,12.5,20.2L12.5,20.2z"/>
<g>
	<defs>
		<path id="SVGID_13_" d="M12.1,20.4c0.2,0,1,0,1.3,0.1c0.4,0.1,0.4,0.5,0.5,1c0,0.5,0.1,0.9-0.1,1.2c-0.2,0.2-0.8,0.1-1.3,0
			c-0.6-0.1-0.8-0.2-0.8-0.5C11.6,21.8,11.7,20.5,12.1,20.4z"/>
	</defs>
	<clipPath id="SVGID_14_">
		<use xlink:href="#SVGID_13_"  style="overflow:visible;"/>
	</clipPath>
	<g class="st27">
		<path class="st24" d="M13.5,20.5c0,0,0.3,0.2,0.3,0.7s0.1,1.2-0.2,1.3c-0.3,0-1.5,0-1.7-0.3l-0.2,0.3c0,0,1.5,0.5,2,0.3
			s0.4-0.4,0.5-0.7C14.2,21.8,14.8,20.5,13.5,20.5z"/>
	</g>
</g>
<g>
	<defs>
		<path id="SVGID_15_" d="M12.1,20.4c0.2,0,1,0,1.3,0.1c0.4,0.1,0.4,0.5,0.5,1c0,0.5,0.1,0.9-0.1,1.2c-0.2,0.2-0.8,0.1-1.3,0
			c-0.6-0.1-0.8-0.2-0.8-0.5C11.6,21.8,11.7,20.5,12.1,20.4z"/>
	</defs>
	<clipPath id="SVGID_16_">
		<use xlink:href="#SVGID_15_"  style="overflow:visible;"/>
	</clipPath>
	<g class="st28">
		<path class="st26" d="M13,20.3c0,0-0.8-0.1-1,0.2c0,0-0.4,1.6,0,1.8l-0.3,0.3c0,0-0.4-0.3-0.2-1.3c0.2-1,0.3-1.1,0.4-1.1
			C12.1,20.3,12.8,20.1,13,20.3z"/>
	</g>
</g>
<path class="st24" d="M13.5,20.7c0.1,0.1,0.2,0.4,0.1,0.5C13.4,21.3,13.3,20.6,13.5,20.7z"/>
<path class="st24" d="M13.6,21.6c0.1,0.1,0.2,0.4,0,0.5C13.5,22.3,13.5,21.5,13.6,21.6z"/>
<path class="st29" d="M13.4,29C8,29,3.6,26.2,3.3,22.8c0,0.1,0,0.2,0,0.4c0,3.6,4.5,6.6,10.1,6.6s10.1-3,10.1-6.6c0-0.1,0-0.2,0-0.4
	C23.2,26.2,18.8,29,13.4,29z"/>
</svg>
